HIERARCHY
ROOT Hips
{
	OFFSET -0.001795 -0.223333 0.028219
	CHANNELS 6 Xposition Yposition Zposition Zrotation Yrotation Xrotation 
	JOINT LeftUpLeg
	{
		OFFSET 0.069520 -0.091406 -0.006815
		CHANNELS 3 Zrotation Yrotation Xrotation
		JOINT LeftLeg
		{
			OFFSET 0.034277 -0.375199 -0.004496
			CHANNELS 3 Zrotation Yrotation Xrotation
			JOINT LeftFoot
			{
				OFFSET -0.013596 -0.397961 -0.043693
				CHANNELS 3 Zrotation Yrotation Xrotation
				JOINT LeftToe
				{
					OFFSET 0.026358 -0.055791 0.119288
					CHANNELS 3 Zrotation Yrotation Xrotation
					End Site
					{
						OFFSET 0.000000 0.000000 0.000000
					}
				}
			}
		}
	}
	JOINT RightUpLeg
	{
		OFFSET -0.067670 -0.090522 -0.004320
		CHANNELS 3 Zrotation Yrotation Xrotation
		JOINT RightLeg
		{
			OFFSET -0.038290 -0.382569 -0.008850
			CHANNELS 3 Zrotation Yrotation Xrotation
			JOINT RightFoot
			{
				OFFSET 0.015774 -0.398415 -0.042312
				CHANNELS 3 Zrotation Yrotation Xrotation
				JOINT RightToe
				{
					OFFSET -0.025372 -0.048144 0.123348
					CHANNELS 3 Zrotation Yrotation Xrotation
					End Site
					{
						OFFSET 0.000000 0.000000 0.000000
					}
				}
			}
		}
	}
	JOINT Spine
	{
		OFFSET -0.002533 0.108963 -0.026696
		CHANNELS 3 Zrotation Yrotation Xrotation
		JOINT Spine1
		{
			OFFSET 0.005487 0.135180 0.001092
			CHANNELS 3 Zrotation Yrotation Xrotation
			JOINT Spine2
			{
				OFFSET 0.001457 0.052922 0.025425
				CHANNELS 3 Zrotation Yrotation Xrotation
				JOINT Neck
				{
					OFFSET -0.002778 0.213870 -0.042857
					CHANNELS 3 Zrotation Yrotation Xrotation
					JOINT Head
					{
						OFFSET 0.005152 0.064970 0.051349
						CHANNELS 3 Zrotation Yrotation Xrotation
						End Site
						{
							OFFSET 0.000000 0.000000 0.000000
						}
					}
				}
				JOINT LeftShoulder
				{
					OFFSET 0.078845 0.121749 -0.034090
					CHANNELS 3 Zrotation Yrotation Xrotation
					JOINT LeftArm
					{
						OFFSET 0.090977 0.030469 -0.008868
						CHANNELS 3 Zrotation Yrotation Xrotation
						JOINT LeftForeArm
						{
							OFFSET 0.259612 -0.012772 -0.027456
							CHANNELS 3 Zrotation Yrotation Xrotation
							JOINT LeftHand
							{
								OFFSET 0.249234 0.008986 -0.001171
								CHANNELS 3 Zrotation Yrotation Xrotation
								End Site
								{
									OFFSET 0.000000 0.000000 0.000000
								}
							}
						}
					}
				}
				JOINT RightShoulder
				{
					OFFSET -0.081759 0.118833 -0.038615
					CHANNELS 3 Zrotation Yrotation Xrotation
					JOINT RightArm
					{
						OFFSET -0.096012 0.032551 -0.009143
						CHANNELS 3 Zrotation Yrotation Xrotation
						JOINT RightForeArm
						{
							OFFSET -0.253742 -0.013329 -0.021401
							CHANNELS 3 Zrotation Yrotation Xrotation
							JOINT RightHand
							{
								OFFSET -0.255298 0.007772 -0.005559
								CHANNELS 3 Zrotation Yrotation Xrotation
								End Site
								{
									OFFSET 0.000000 0.000000 0.000000
								}
							}
						}
					}
				}
			}
		}
	}
}
MOTION
Frames: 7
Frame Time: 0.050000
0.028471 0.975518 -0.009135 -2.001083 0.340787 -5.344629 -1.559244 1.493429 14.437287 -0.580966 0.062085 0.070255 1.902925 11.585928 30.402557 0.000000 0.000000 0.000000 -0.164545 2.314777 -23.227044 1.576141 0.316866 19.372919 -3.176028 -12.559181 22.164728 0.000000 0.000000 0.000000 7.286334 -1.949787 18.669814 -4.043517 1.511030 -32.852271 -4.300458 -0.795167 31.488358 7.053739 -5.387178 -11.490837 0.000000 0.000000 0.000000 -22.689326 -5.942975 2.684658 -42.238433 -9.035451 -5.034263 -15.386016 -35.858344 6.969335 0.000000 0.000000 0.000000 33.146030 -6.991575 -7.186031 49.391423 -5.465986 -9.952088 9.373052 9.156438 0.947959 0.000000 0.000000 0.000000 
0.027139 0.957429 -0.009833 -1.304355 3.110039 -4.513817 -1.742324 1.687591 17.121255 -0.152689 -0.020038 1.054830 -0.222027 4.856252 12.550348 0.000000 0.000000 0.000000 -0.557918 2.041575 -22.574020 -0.191332 0.237668 5.656273 -2.825241 -11.284343 20.843848 0.000000 0.000000 0.000000 7.993050 -1.998555 17.343861 -4.393646 1.638247 -32.205212 -6.068541 -3.297204 30.453706 7.974694 -6.174159 -11.903740 0.000000 0.000000 0.000000 -22.875071 -5.318959 2.482370 -40.969616 -8.545846 -5.003381 -16.184920 -41.133928 8.493927 0.000000 0.000000 0.000000 32.636208 -7.319833 -7.742597 50.080505 -9.276111 -11.277253 8.732993 6.557009 0.580165 0.000000 0.000000 0.000000 
0.024309 0.943808 -0.007668 -1.155846 5.643321 -4.445733 -0.981808 1.659152 20.001433 0.253204 -0.178235 3.754156 -0.483683 -1.304361 -0.513213 0.000000 0.000000 0.000000 -0.877129 1.885338 -23.001160 -0.464354 0.235626 4.720608 -3.977646 -12.445145 19.651948 0.000000 0.000000 0.000000 8.433399 -2.137015 17.290596 -4.873870 1.762514 -32.025792 -6.303700 -4.381726 30.405391 8.862793 -6.764132 -12.354924 0.000000 0.000000 0.000000 -23.823203 -5.009362 2.096832 -39.842728 -9.170851 -4.632188 -17.586939 -43.473845 9.534640 0.000000 0.000000 0.000000 33.504848 -8.671535 -8.711748 50.016003 -11.227820 -11.995640 7.710843 4.680284 0.338392 0.000000 0.000000 0.000000 
0.019407 0.936602 0.000468 -1.598073 6.494926 -4.313561 0.257843 1.435045 21.305668 0.416040 -0.448669 8.793647 -0.276391 -2.111994 -2.588309 0.000000 0.000000 0.000000 0.030965 2.161424 -24.899851 0.937676 0.131505 12.376445 -4.410610 -13.342875 23.659013 0.000000 0.000000 0.000000 7.378495 -1.868326 16.274532 -0.620367 1.040585 -30.222329 -7.773510 -2.883957 29.190394 8.591134 -5.507732 -15.552609 0.000000 0.000000 0.000000 -23.661759 -3.263060 0.353894 -41.506753 -8.834038 -4.568480 -19.095083 -46.102229 10.731396 0.000000 0.000000 0.000000 33.815331 -10.538434 -9.371927 48.708688 -10.315028 -11.336779 7.445325 3.410430 0.198235 0.000000 0.000000 0.000000 
0.012779 0.941150 0.011125 -2.443424 7.204342 -4.030251 1.508669 0.979605 17.898668 0.802664 -1.220561 19.061113 -2.400016 -0.566756 7.565817 0.000000 0.000000 0.000000 1.786149 2.440112 -24.134387 0.782436 0.179821 17.596445 -3.977369 -12.604179 23.760404 0.000000 0.000000 0.000000 9.088433 -1.954056 14.812881 -3.871671 1.628648 -31.129611 -4.362982 -4.827127 30.359436 7.010779 -4.806857 -14.661112 0.000000 0.000000 0.000000 -26.558901 -3.706803 1.021923 -40.743801 -6.897302 -5.388530 -20.049568 -46.216058 11.369058 0.000000 0.000000 0.000000 31.689626 -9.495267 -8.628788 50.691433 -10.595321 -12.002921 7.239657 3.718129 0.225845 0.000000 0.000000 0.000000 
0.005763 0.951251 0.017750 -3.275040 6.806374 -4.382271 3.775435 0.424678 12.012895 -1.561745 -1.484109 32.837299 -3.393532 3.740091 21.645639 0.000000 0.000000 0.000000 3.126870 2.447166 -21.135561 1.302683 0.036537 19.298067 -2.848940 -10.614717 20.670897 0.000000 0.000000 0.000000 10.047575 -2.023498 14.436732 -2.764386 1.447578 -30.455434 -4.370273 -2.276976 28.956307 7.120531 -4.511553 -14.041509 0.000000 0.000000 0.000000 -26.890571 -4.401502 0.549847 -41.944199 -5.155549 -5.708993 -20.119466 -41.969226 9.956054 0.000000 0.000000 0.000000 31.809058 -9.081996 -7.418799 49.882889 -8.481889 -11.150278 8.909886 4.865050 0.393282 0.000000 0.000000 0.000000 
0.000194 0.961567 0.018309 -2.696714 6.522872 -5.009780 4.149335 0.121144 4.355017 -4.442194 -0.974099 44.654321 -1.581406 8.036767 29.155793 0.000000 0.000000 0.000000 3.912818 1.961566 -15.462047 0.684670 0.217489 16.709239 -2.090640 -9.354986 20.018844 0.000000 0.000000 0.000000 9.583899 -1.966599 14.695431 -2.668684 1.438849 -29.850489 -4.805529 0.079956 28.838378 9.508561 -6.338080 -12.539997 0.000000 0.000000 0.000000 -24.849402 -5.191726 0.400129 -44.227120 -3.488610 -6.302910 -19.929705 -39.702723 9.087041 0.000000 0.000000 0.000000 31.974084 -8.200429 -5.874995 50.667837 -5.741388 -10.486461 9.699765 7.125308 0.725063 0.000000 0.000000 0.000000 
